<?xml version="1.0" encoding="UTF-8" standalone="no"?>
<svg
   xmlns:dc="http://purl.org/dc/elements/1.1/"
   xmlns:cc="http://creativecommons.org/ns#"
   xmlns:rdf="http://www.w3.org/1999/02/22-rdf-syntax-ns#"
   xmlns:svg="http://www.w3.org/2000/svg"
   xmlns="http://www.w3.org/2000/svg"
   xmlns:sodipodi="http://sodipodi.sourceforge.net/DTD/sodipodi-0.dtd"
   xmlns:inkscape="http://www.inkscape.org/namespaces/inkscape"
   width="13cm"
   height="13cm"
   viewBox="0 0 130 129.99999"
   version="1.1"
   id="svg8"
   inkscape:version="1.0.1 (3bc2e813f5, 2020-09-07)"
   sodipodi:docname="logoWhite.svg">
  <defs
     id="defs2" />
  <sodipodi:namedview
     id="base"
     pagecolor="#ffffff"
     bordercolor="#666666"
     borderopacity="1.0"
     inkscape:pageopacity="0"
     inkscape:pageshadow="2"
     inkscape:zoom="0.98994949"
     inkscape:cx="505.52788"
     inkscape:cy="213.52186"
     inkscape:document-units="mm"
     inkscape:current-layer="layer1"
     inkscape:document-rotation="0"
     showgrid="false"
     showguides="false"
     units="cm"
     inkscape:window-width="1920"
     inkscape:window-height="1002"
     inkscape:window-x="-8"
     inkscape:window-y="-8"
     inkscape:window-maximized="1"
     inkscape:pagecheckerboard="false" />
  <metadata
     id="metadata5">
    <rdf:RDF>
      <cc:Work
         rdf:about="">
        <dc:format>image/svg+xml</dc:format>
        <dc:type
           rdf:resource="http://purl.org/dc/dcmitype/StillImage" />
        <dc:title></dc:title>
      </cc:Work>
    </rdf:RDF>
  </metadata>
  <g
     inkscape:label="Layer 1"
     inkscape:groupmode="layer"
     id="layer1">
    <path
       style="fill:#ffffff;fill-opacity:1;fill-rule:nonzero;stroke:none;stroke-width:0.333331"
       id="path66"
       d="m 31.714829,83.721097 c -1.826705,-8.409066 -1.127924,-16.89573 1.931327,-24.944681 0.921495,-2.424473 2.123903,-4.732641 3.185858,-7.098959 6.934205,-13.488525 16.326096,-25.629613 27.068856,-36.307339 1.833061,-1.82196 3.787345,-3.517762 5.681018,-5.276646 4.405636,-3.3582189 9.142664,-7.3658628 14.799329,-8.446757 1.207629,-0.2307554 4.828058,-0.4543851 3.68841,0.00693 -6.118671,2.4768218 -8.188582,-1.16845788 -4.241768,3.308111 0.384478,1.200004 0.965325,2.3540444 1.153431,3.6000187 0.502661,3.3294023 -0.03578,7.9061863 -0.587802,11.0933333 -1.467532,8.473769 -4.687309,16.217247 -7.898715,24.141918 -7.535475,16.701954 -16.567668,32.848278 -27.663506,47.46859 -2.162992,2.850039 -4.496968,5.566171 -6.745449,8.349265 -6.238192,7.231469 -12.973036,14.065159 -20.466085,20.007089 -3.042018,2.4123 -7.276875,5.46711 -10.92912,7.10811 -1.322065,0.59401 -2.7673946,0.86279 -4.1510918,1.29419 -1.0633874,-0.0459 -4.2050563,0.18264 -3.1901574,-0.13812 2.2839749,-0.72189 5.0002021,0.0515 7.1016122,-1.09813 0.719002,-0.39336 -0.8968363,-1.45108 -0.9467896,-2.26912 -0.079671,-1.3048 0.1911692,-2.62911 0.5713136,-3.87984 1.451337,-4.7751 3.578493,-7.43953 6.265419,-11.77043 11.640132,-16.445489 27.215331,-29.477361 43.475527,-41.149306 3.947639,-2.833702 8.00334,-5.513743 12.005011,-8.270615 13.362389,-8.821044 27.314184,-16.684995 41.187993,-24.658182 0,0 -8.5955,-0.900645 -8.5955,-0.900645 v 0 C 90.719063,41.951898 76.917739,49.856365 63.676801,58.658735 54.765928,64.814416 48.482173,68.950247 39.965668,75.652351 27.870834,85.170438 16.573557,95.85249 7.5517795,108.37458 c -2.9374884,4.60711 -7.53275885,10.54519 -7.31393408,16.4748 0.0371024,1.0055 0.0188344,2.51473 0.96370538,2.86054 5.7882814,2.11835 9.2701852,1.72473 14.3937872,1.44612 1.346551,-0.49601 2.753701,-0.85119 4.039644,-1.48802 3.603652,-1.78466 7.64984,-4.8164 10.683674,-7.29717 7.399121,-6.0503 14.078419,-12.92083 20.282956,-20.17765 2.249039,-2.800523 4.585867,-5.532743 6.747115,-8.401553 C 68.43496,77.075916 77.400011,60.818776 85.122139,44.13214 88.423478,36.133315 91.761854,28.3237 93.344121,19.767713 93.955809,16.460077 94.568884,11.752987 94.138624,8.2959321 93.969365,6.9359287 93.402274,5.6556982 93.0341,4.3355812 88.718065,-1.4557502 91.662076,1.1031234 78.990327,0.25209136 72.173235,-0.20574701 65.729113,5.5067187 60.799082,9.3754315 58.933323,11.15459 57.010768,12.876025 55.201812,14.712905 44.515738,25.563941 35.071709,37.772885 28.037205,51.304368 c -2.595758,5.719825 -3.940882,7.928074 -5.405125,13.93429 -1.497927,6.144422 -1.205713,12.506343 -0.255681,18.698287 0,0 9.33843,-0.215848 9.33843,-0.215848 z" />
  </g>
</svg>
