<?xml version="1.0" encoding="UTF-8" standalone="no"?>
<svg
   xmlns:dc="http://purl.org/dc/elements/1.1/"
   xmlns:cc="http://creativecommons.org/ns#"
   xmlns:rdf="http://www.w3.org/1999/02/22-rdf-syntax-ns#"
   xmlns:svg="http://www.w3.org/2000/svg"
   xmlns="http://www.w3.org/2000/svg"
   xmlns:sodipodi="http://sodipodi.sourceforge.net/DTD/sodipodi-0.dtd"
   xmlns:inkscape="http://www.inkscape.org/namespaces/inkscape"
   width="13cm"
   height="13cm"
   viewBox="0 0 130 129.99999"
   version="1.1"
   id="svg8"
   inkscape:version="1.0.1 (3bc2e813f5, 2020-09-07)"
   sodipodi:docname="logoWhiteBlack.svg">
  <defs
     id="defs2" />
  <sodipodi:namedview
     id="base"
     pagecolor="#ffffff"
     bordercolor="#666666"
     borderopacity="1.0"
     inkscape:pageopacity="0"
     inkscape:pageshadow="2"
     inkscape:zoom="0.35"
     inkscape:cx="400"
     inkscape:cy="560"
     inkscape:document-units="mm"
     inkscape:current-layer="layer1"
     inkscape:document-rotation="0"
     showgrid="false"
     showguides="false"
     units="cm"
     inkscape:window-width="1920"
     inkscape:window-height="1002"
     inkscape:window-x="-8"
     inkscape:window-y="-8"
     inkscape:window-maximized="1"
     inkscape:pagecheckerboard="false" />
  <metadata
     id="metadata5">
    <rdf:RDF>
      <cc:Work
         rdf:about="">
        <dc:format>image/svg+xml</dc:format>
        <dc:type
           rdf:resource="http://purl.org/dc/dcmitype/StillImage" />
        <dc:title></dc:title>
      </cc:Work>
    </rdf:RDF>
  </metadata>
  <g
     inkscape:label="Layer 1"
     inkscape:groupmode="layer"
     id="layer1">
    <rect
       style="fill:#000000;stroke-width:0.327666"
       id="rect68"
       width="165.55357"
       height="160.2619"
       x="-12.851191"
       y="-16.630953" />
    <path
       style="fill:#ffffff;fill-opacity:1;fill-rule:nonzero;stroke:none;stroke-width:0.264583"
       id="path66"
       d="m 47.189746,77.752107 c -1.449954,-6.67473 -0.895294,-13.411052 1.532998,-19.79994 0.731441,-1.924434 1.685857,-3.756552 2.528787,-5.634826 5.504053,-10.706569 12.958903,-20.343606 21.486011,-28.819091 1.454999,-1.446189 3.00622,-2.792238 4.509331,-4.18836 3.49699,-2.665599 7.257025,-5.846682 11.747025,-6.704646 0.95856,-0.183163 3.83229,-0.36067 2.92769,0.0055 -4.85672,1.965987 -6.49972,-0.927468 -3.36692,2.625826 0.30518,0.952508 0.76623,1.868532 0.91554,2.857529 0.39899,2.642726 -0.0284,6.275566 -0.46657,8.805377 -1.16486,6.726087 -3.72057,12.872503 -6.269635,19.162741 -5.981314,13.257242 -13.150652,26.07345 -21.958017,37.67838 -1.716884,2.26223 -3.569486,4.41817 -5.354227,6.62726 -4.95159,5.74001 -10.297398,11.164273 -16.245036,15.880703 -2.414613,1.91477 -5.776047,4.33954 -8.675031,5.64209 -1.049395,0.4715 -2.196631,0.68484 -3.294946,1.02726 -0.844068,-0.0365 -3.33778,0.14498 -2.5322,-0.10963 1.812914,-0.57299 3.96893,0.0409 5.636932,-0.87165 0.570712,-0.31223 -0.711867,-1.15179 -0.751517,-1.80112 -0.06324,-1.03568 0.151741,-2.08686 0.453482,-3.07963 1.152004,-3.79025 2.840443,-5.90516 4.973201,-9.342823 9.239401,-13.05367 21.602277,-23.39777 34.508871,-32.662422 3.133453,-2.249262 6.352683,-4.376555 9.529024,-6.564833 10.606449,-7.001738 21.680741,-13.24378 32.693131,-19.572528 0,0 -6.82271,-0.714891 -6.82271,-0.714891 v 0 C 94.024588,44.59764 83.069733,50.871842 72.559686,57.858758 c -7.07304,4.886097 -12.060795,8.168928 -18.820804,13.488749 -9.600322,7.55502 -18.56758,16.03394 -25.728652,25.97339 -2.331643,3.656913 -5.979157,8.370293 -5.805464,13.076953 0.02945,0.79811 0.01495,1.99607 0.764945,2.27055 4.594471,1.68144 7.358245,1.36901 11.425126,1.14787 1.06883,-0.39371 2.18576,-0.67564 3.206483,-1.18113 2.860413,-1.41658 6.07209,-3.82303 8.480208,-5.79216 5.873081,-4.80245 11.174801,-10.255943 16.099676,-16.016083 1.785184,-2.22292 3.64005,-4.39163 5.355548,-6.66876 8.799742,-11.68067 15.915786,-24.584837 22.045256,-37.829921 2.62045,-6.349098 5.2703,-12.54801 6.52623,-19.339359 0.48553,-2.625449 0.97216,-6.36172 0.63064,-9.105771 -0.13435,-1.079508 -0.58448,-2.095696 -0.87672,-3.143544 -3.42587,-4.596892 -1.08905,-2.565776 -11.1473,-3.241286 -5.411093,-0.363411 -10.52614,4.170881 -14.439372,7.241687 -1.480953,1.412214 -3.00699,2.778609 -4.442855,4.236641 -8.482113,8.613052 -15.978348,18.303948 -21.562014,29.044616 -2.060393,4.540134 -3.12809,6.29294 -4.290338,11.060398 -1.188987,4.877159 -0.95704,9.926959 -0.202949,14.841839 0,0 7.412416,-0.17133 7.412416,-0.17133 z" />
  </g>
</svg>
